<svg width="30" height="30" viewBox="0 0 30 30" fill="none" xmlns="http://www.w3.org/2000/svg">
<path d="M7.16667 16.1578V13.95C7.16667 12.8234 6.78619 11.7298 6.0869 10.8465L5.3095 9.86453C4.37532 8.68451 5.21574 6.94727 6.72078 6.94727H24.2792C25.7843 6.94727 26.6247 8.68451 25.6905 9.86453L24.9131 10.8465C24.2138 11.7298 23.8333 12.8234 23.8333 13.95V23.9999C23.8333 26.209 22.0425 27.9999 19.8333 27.9999H11.1667C8.95753 27.9999 7.16667 26.209 7.16667 23.9999V21.4209" stroke="#3E3E3E" stroke-width="1.5" stroke-linecap="round"/>
<path d="M18.9445 21.8684L18.9445 12" stroke="#3E3E3E" stroke-width="1.5" stroke-linecap="round" stroke-linejoin="round"/>
<path d="M12 21.8684L12 12" stroke="#3E3E3E" stroke-width="1.5" stroke-linecap="round" stroke-linejoin="round"/>
<path d="M19.1622 3.41522C18.7253 3.1502 18.2089 3 17.6646 3H13.3355C12.7912 3 12.2747 3.1502 11.8378 3.41522" stroke="#3E3E3E" stroke-width="1.5" stroke-linecap="round"/>
</svg>
