<svg width="38" height="31" viewBox="0 0 38 31" fill="none" xmlns="http://www.w3.org/2000/svg">
<path d="M22.5514 30.2046C30.768 30.2046 37.5628 23.4098 37.5628 15.1932C37.5628 6.96156 30.768 0.181708 22.5364 0.181708C14.3198 0.181708 7.53991 6.96156 7.53991 15.1932C7.53991 23.4098 14.3347 30.2046 22.5514 30.2046ZM13.3469 5.47987C15.0082 3.90838 17.0736 2.74099 19.3485 2.17226C18.1811 3.23489 17.1784 4.86624 16.445 6.93163C15.2327 6.57243 14.1851 6.07853 13.3469 5.47987ZM25.7542 2.17226C28.0441 2.75596 30.0945 3.90838 31.7558 5.47987C30.9027 6.07853 29.87 6.57243 28.6577 6.93163C27.9244 4.86624 26.9216 3.23489 25.7542 2.17226ZM17.9866 7.32076C18.9145 4.67168 20.2765 2.83079 21.7731 2.33689V7.72485C20.3962 7.67995 19.139 7.54526 17.9866 7.32076ZM23.3296 2.33689C24.8263 2.83079 26.1882 4.67168 27.1162 7.32076C25.9637 7.54526 24.7066 7.67995 23.3296 7.72485V2.33689ZM9.17126 14.4149C9.3359 11.4515 10.4883 8.74258 12.2993 6.5874C13.2571 7.32076 14.5143 7.91942 15.996 8.36842C15.5171 10.1494 15.2178 12.1849 15.1579 14.4149H9.17126ZM29.9448 14.4149C29.885 12.1849 29.5857 10.1494 29.1067 8.36842C30.5884 7.91942 31.8456 7.32076 32.8035 6.60236C34.6144 8.74258 35.7668 11.4515 35.9315 14.4149H29.9448ZM23.3296 14.4149V9.26641C24.8263 9.22151 26.2631 9.05688 27.5652 8.77251C28.0142 10.4637 28.2836 12.3795 28.3434 14.4149H23.3296ZM16.7593 14.4149C16.8192 12.3795 17.1035 10.4637 17.5376 8.77251C18.8546 9.05688 20.2765 9.22151 21.7731 9.26641V14.4149H16.7593ZM9.17126 15.9714H15.1579C15.2178 18.2164 15.5171 20.2818 15.996 22.0778C14.5443 22.5268 13.2871 23.1254 12.3442 23.8289C10.5033 21.6737 9.3359 18.9498 9.17126 15.9714ZM16.7593 15.9714H21.7731V21.1948C20.2914 21.2247 18.8696 21.4043 17.5675 21.6737C17.1035 19.9675 16.8042 18.0069 16.7593 15.9714ZM23.3296 21.1948V15.9714H28.3584C28.2985 18.0069 27.9992 19.9675 27.5352 21.6737C26.2331 21.4043 24.8263 21.2247 23.3296 21.1948ZM29.1067 22.0778C29.5857 20.2818 29.885 18.2164 29.9448 15.9714H35.9315C35.7668 18.9498 34.5994 21.6737 32.7586 23.8289C31.8157 23.1254 30.5585 22.5268 29.1067 22.0778ZM23.3296 22.7363C24.6916 22.7812 25.9488 22.9159 27.0862 23.1404C26.1583 25.7296 24.8113 27.5855 23.3296 28.0794V22.7363ZM18.0165 23.1404C19.1689 22.9159 20.4111 22.7812 21.7731 22.7363V28.0794C20.2914 27.5855 18.9444 25.7296 18.0165 23.1404ZM28.6577 23.5295C29.8401 23.8887 30.8728 24.3677 31.7109 24.9364C30.0646 26.478 28.0441 27.6304 25.8141 28.1991C26.9515 27.1365 27.9244 25.5351 28.6577 23.5295ZM13.3918 24.9364C14.23 24.3677 15.2627 23.8887 16.46 23.5295C17.1784 25.5351 18.1512 27.1365 19.2887 28.1991C17.0586 27.6304 15.0382 26.478 13.3918 24.9364Z" fill="#2A295F"/>
</svg>
