<svg width="34" height="35" viewBox="0 0 34 35" fill="none" xmlns="http://www.w3.org/2000/svg">
<path d="M12.8125 5.51562L13.75 4.8125L15.1 3.8C16.5222 2.73333 18.4778 2.73333 19.9 3.8L30.9 12.05C31.9072 12.8054 32.5 13.991 32.5 15.25V28C32.5 30.2091 30.7091 32 28.5 32H23.2368C22.6846 32 22.2368 31.5523 22.2368 31V27.5M7.1875 9.73438L6.25 10.4375L4.1 12.05C3.09278 12.8054 2.5 13.991 2.5 15.25L2.5 28C2.5 30.2091 4.29086 32 6.5 32H11.7632C12.3154 32 12.7632 31.5523 12.7632 31V25C12.7632 23.8954 13.6586 23 14.7632 23H17.5" stroke="white" stroke-width="1.5" stroke-linecap="round"/>
</svg>
