<svg width="65" height="64" viewBox="0 0 65 64" fill="none" xmlns="http://www.w3.org/2000/svg">
<path fill-rule="evenodd" clip-rule="evenodd" d="M32.5257 7.99609C26.0106 7.99609 25.195 8.02328 22.6362 8.14002C20.0823 8.25676 18.3376 8.66296 16.8119 9.25627C15.2127 9.85757 13.7622 10.8011 12.5628 12.0229C11.343 13.2209 10.3989 14.6704 9.79618 16.2704C9.20607 17.796 8.79827 19.5424 8.68153 22.0963C8.56638 24.6535 8.5376 25.4675 8.5376 31.9842C8.5376 38.501 8.56478 39.315 8.68153 41.8737C8.79827 44.4277 9.20447 46.1724 9.79777 47.6981C10.3991 49.2973 11.3426 50.7478 12.5644 51.9472C13.7625 53.167 15.2119 54.1111 16.8119 54.7138C18.3376 55.3055 20.0823 55.7117 22.6362 55.8284C25.195 55.9452 26.0106 55.9724 32.5257 55.9724C39.0409 55.9724 39.8565 55.9452 42.4152 55.8284C44.9692 55.7117 46.7139 55.3055 48.2396 54.7122C49.8388 54.1109 51.2893 53.1674 52.4887 51.9456C53.7085 50.7475 54.6526 49.2981 55.2553 47.6981C55.847 46.1724 56.2532 44.4277 56.3699 41.8737C56.4867 39.315 56.5139 38.4994 56.5139 31.9842C56.5139 25.4691 56.4867 24.6535 56.3699 22.0947C56.2532 19.5408 55.847 17.796 55.2537 16.2704C54.6515 14.6697 53.7073 13.2196 52.4871 12.0213C51.289 10.8015 49.8396 9.85735 48.2396 9.25467C46.7139 8.66456 44.9676 8.25676 42.4137 8.14002C39.8565 8.02488 39.0425 7.99609 32.5257 7.99609ZM32.5257 12.3188C38.9306 12.3188 39.6902 12.3427 42.2201 12.4579C44.5582 12.565 45.828 12.9536 46.6739 13.2847C47.7934 13.7181 48.593 14.2394 49.4326 15.0774C50.2722 15.917 50.7919 16.7166 51.2253 17.836C51.5547 18.682 51.9449 19.9518 52.0521 22.2898C52.1672 24.8198 52.1912 25.5794 52.1912 31.9842C52.1912 38.3891 52.1672 39.1487 52.0521 41.6786C51.9449 44.0167 51.5563 45.2865 51.2253 46.1324C50.8414 47.1744 50.2288 48.117 49.4326 48.8911C48.6587 49.6875 47.716 50.3001 46.6739 50.6838C45.828 51.0132 44.5582 51.4034 42.2201 51.5106C39.6902 51.6257 38.9322 51.6497 32.5257 51.6497C26.1193 51.6497 25.3613 51.6257 22.8313 51.5106C20.4933 51.4034 19.2235 51.0148 18.3775 50.6838C17.3356 50.2999 16.3929 49.6873 15.6189 48.8911C14.8228 48.117 14.2102 47.1743 13.8262 46.1324C13.4967 45.2865 13.1065 44.0167 12.9994 41.6786C12.8842 39.1487 12.8603 38.3891 12.8603 31.9842C12.8603 25.5794 12.8842 24.8198 12.9994 22.2898C13.1065 19.9518 13.4951 18.682 13.8262 17.836C14.2596 16.7166 14.7809 15.917 15.6189 15.0774C16.3928 14.2811 17.3355 13.6685 18.3775 13.2847C19.2235 12.9552 20.4933 12.565 22.8313 12.4579C25.3613 12.3427 26.1209 12.3188 32.5257 12.3188Z" fill="white"/>
<path fill-rule="evenodd" clip-rule="evenodd" d="M32.5257 39.9881C31.4746 39.9881 30.4338 39.7811 29.4627 39.3789C28.4916 38.9766 27.6093 38.3871 26.866 37.6438C26.1228 36.9006 25.5332 36.0182 25.131 35.0471C24.7287 34.076 24.5217 33.0352 24.5217 31.9841C24.5217 30.933 24.7287 29.8922 25.131 28.9211C25.5332 27.95 26.1228 27.0676 26.866 26.3244C27.6093 25.5811 28.4916 24.9916 29.4627 24.5893C30.4338 24.1871 31.4746 23.9801 32.5257 23.9801C34.6485 23.9801 36.6844 24.8233 38.1854 26.3244C39.6865 27.8254 40.5298 29.8613 40.5298 31.9841C40.5298 34.1069 39.6865 36.1428 38.1854 37.6438C36.6844 39.1449 34.6485 39.9881 32.5257 39.9881ZM32.5257 19.6542C29.2556 19.6542 26.1195 20.9532 23.8072 23.2655C21.4949 25.5778 20.1958 28.714 20.1958 31.9841C20.1958 35.2542 21.4949 38.3904 23.8072 40.7027C26.1195 43.015 29.2556 44.314 32.5257 44.314C35.7958 44.314 38.932 43.015 41.2443 40.7027C43.5566 38.3904 44.8556 35.2542 44.8556 31.9841C44.8556 28.714 43.5566 25.5778 41.2443 23.2655C38.932 20.9532 35.7958 19.6542 32.5257 19.6542ZM48.4427 19.4303C48.4427 20.2033 48.1356 20.9446 47.589 21.4912C47.0424 22.0378 46.3011 22.3449 45.5281 22.3449C44.7551 22.3449 44.0138 22.0378 43.4672 21.4912C42.9206 20.9446 42.6135 20.2033 42.6135 19.4303C42.6135 18.6573 42.9206 17.916 43.4672 17.3694C44.0138 16.8228 44.7551 16.5157 45.5281 16.5157C46.3011 16.5157 47.0424 16.8228 47.589 17.3694C48.1356 17.916 48.4427 18.6573 48.4427 19.4303Z" fill="white"/>
</svg>
