<svg width="34" height="35" viewBox="0 0 34 35" fill="none" xmlns="http://www.w3.org/2000/svg">
<path d="M2.5 8.25L16.7308 2.32051C17.2231 2.11538 17.7769 2.11538 18.2692 2.32051L25 5.125L32.5 8.25M2.5 8.25L10 11.375M2.5 8.25V14.75M17.5 14.5V32M17.5 14.5L32.5 8.25M17.5 14.5L10 11.375M17.5 32L3.11538 26.0064C2.74274 25.8511 2.5 25.487 2.5 25.0833V19.25M17.5 32L31.8846 26.0064C32.2573 25.8511 32.5 25.487 32.5 25.0833V8.25M10 11.375L19.75 7.25" stroke="white" stroke-width="1.5" stroke-linecap="round" stroke-linejoin="round"/>
</svg>
