<svg width="65" height="64" viewBox="0 0 65 64" fill="none" xmlns="http://www.w3.org/2000/svg">
<path d="M32.878 8.7699C19.7108 8.7699 8.99506 19.091 8.99042 31.7753C8.98733 35.8316 10.0892 39.7904 12.1785 43.2772L8.78923 55.1986L21.4534 51.9996C24.9761 53.8423 28.8931 54.8035 32.8687 54.8008H32.878C46.0451 54.8008 56.7609 44.4782 56.7655 31.7939C56.7686 25.6498 54.2862 19.8663 49.7749 15.5191C45.2651 11.1703 39.2681 8.77145 32.878 8.7699ZM32.878 50.9147H32.8702C29.3076 50.9147 25.8131 49.9924 22.7643 48.2497L22.0369 47.835L14.5247 49.7324L16.5304 42.6752L16.0584 41.9525C14.0758 38.9286 13.0203 35.3912 13.022 31.7753C13.0266 21.2313 21.9347 12.656 32.8857 12.656C38.1879 12.6575 43.1727 14.6493 46.9226 18.263C50.6725 21.8767 52.7355 26.6821 52.7324 31.7923C52.7278 42.3363 43.8212 50.9147 32.8764 50.9147H32.878ZM43.7686 36.5915C43.1712 36.3052 40.2369 34.9139 39.689 34.7204C39.1427 34.5301 38.745 34.431 38.3473 35.0067C37.9511 35.5824 36.8058 36.8778 36.4592 37.2601C36.1094 37.6439 35.7612 37.6903 35.1638 37.404C34.5664 37.1161 32.6427 36.5095 30.3646 34.5502C28.5895 33.0273 27.3916 31.1454 27.0434 30.5682C26.6952 29.994 27.0063 29.6829 27.305 29.3966C27.5727 29.1412 27.9024 28.7265 28.1995 28.3907C28.4966 28.0548 28.5957 27.8149 28.7969 27.4311C28.995 27.0489 28.8959 26.7115 28.7458 26.4252C28.5957 26.1358 27.404 23.3067 26.9041 22.1568C26.4213 21.0363 25.9291 21.1865 25.5624 21.1679C25.2141 21.1524 24.8179 21.1478 24.4171 21.1478C24.0225 21.1478 23.374 21.2917 22.8262 21.8674C22.2799 22.4431 20.7369 23.8329 20.7369 26.662C20.7369 29.4926 22.8757 32.2257 23.1744 32.6095C23.4731 32.9917 27.3839 38.8 33.3717 41.2916C34.7955 41.8813 35.9067 42.2357 36.7749 42.5019C38.2049 42.9398 39.5064 42.8764 40.534 42.7294C41.6793 42.5638 44.0657 41.3396 44.561 39.9978C45.0593 38.656 45.0593 37.5046 44.9107 37.2647C44.7652 37.0248 44.366 36.8809 43.7686 36.5915Z" fill="white"/>
</svg>
