<svg width="485" height="445" viewBox="0 0 485 445" fill="none" xmlns="http://www.w3.org/2000/svg">
<g clip-path="url(#clip0_71_620)">
<path d="M573.702 403.473C546.9 404.046 521.68 400.771 496.52 396.827C496.371 396.804 496.222 396.775 496.077 396.736C486.533 394.129 479.506 395.697 471.822 403.817C452.466 424.268 427.527 435.518 400.021 441.199C369.238 447.557 338.892 446.027 309.147 435.941C280.51 426.23 256.589 409.996 240.273 383.9C238.454 380.991 236.503 382.215 234.478 383.11C220.068 389.477 205.083 394.004 189.567 396.593C158.317 401.806 127.088 402.24 96.4732 393.123C78.4294 387.75 62.2072 378.568 48.0393 365.844C31.4647 350.959 17.991 333.898 8.89491 313.469C-1.90782 289.208 -2.80518 264.456 5.84514 239.539C13.7793 216.685 27.1026 197.804 48.7019 185.645C60.3143 179.107 72.7122 175.533 86.0593 174.655C99.3181 173.782 112.193 175.2 124.761 179.359C128.379 180.557 129.159 179.568 128.925 175.913C127.8 158.377 130.802 141.733 140.133 126.514C148.736 112.483 161.419 103.556 176.686 98.5793C199.256 91.2218 221.546 92.9124 243.086 102.956C247.086 104.821 248.722 103.382 250.033 99.6684C258.11 76.7954 271.249 57.1165 288.906 40.6252C312.467 18.6205 340.243 4.99596 372.425 1.19646C415.854 -3.93083 454.679 7.39429 488.005 35.6899C513.683 57.4912 530.297 85.1792 537.557 118.198C538.494 122.459 539.714 123.773 544.409 122.839C560.663 119.606 577.101 117.35 593.732 117.923C630.436 119.189 663.063 130.805 690.023 156.486C709.082 174.641 722.638 195.992 729.336 221.693C735.363 244.821 735.023 267.809 729.86 290.947C725.851 308.914 719.069 325.752 709.037 341.161C693.303 365.331 672.382 383.169 644.88 392.914C621.41 401.23 597.234 404.332 573.702 403.473Z" fill="#00A87A" fill-opacity="0.12"/>
</g>
<defs>
<clipPath id="clip0_71_620">
<rect width="733.795" height="445" fill="white"/>
</clipPath>
</defs>
</svg>
