<svg width="794" height="651" viewBox="0 0 794 651" fill="none" xmlns="http://www.w3.org/2000/svg">
<g clip-path="url(#clip0_71_526)">
<path d="M838.121 589.434C798.966 590.271 762.122 585.486 725.365 579.724C725.148 579.69 724.93 579.649 724.718 579.591C710.775 575.782 700.51 578.074 689.284 589.936C661.008 619.813 624.574 636.248 584.39 644.547C539.419 653.836 495.087 651.6 451.633 636.865C409.797 622.679 374.851 598.964 351.015 560.839C348.358 556.59 345.508 558.378 342.549 559.685C321.498 568.987 299.606 575.6 276.939 579.382C231.286 586.999 185.663 587.632 140.938 574.313C114.577 566.464 90.8785 553.049 70.1806 534.461C45.9668 512.715 26.2831 487.791 12.9946 457.947C-2.78713 422.503 -4.09809 386.343 8.53916 349.943C20.1302 316.555 39.5941 288.972 71.1486 271.208C88.1131 261.658 106.225 256.436 125.724 255.153C145.094 253.879 163.902 255.949 182.264 262.026C187.549 263.775 188.688 262.331 188.346 256.991C186.702 231.373 191.089 207.057 204.72 184.825C217.289 164.326 235.817 151.285 258.12 144.015C291.093 133.266 323.656 135.736 355.124 150.408C360.968 153.133 363.357 151.03 365.273 145.606C377.073 112.19 396.267 83.4415 422.063 59.3494C456.483 27.2027 497.061 7.2986 544.075 1.74791C607.52 -5.74255 664.24 10.8023 712.926 52.1393C750.438 83.9889 774.71 124.438 785.317 172.675C786.686 178.901 788.467 180.82 795.327 179.456C819.073 174.732 843.086 171.436 867.383 172.274C921.004 174.123 968.669 191.093 1008.05 228.61C1035.9 255.133 1055.7 286.325 1065.49 323.872C1074.29 357.659 1073.79 391.242 1066.25 425.045C1060.39 451.293 1050.49 475.89 1035.83 498.402C1012.85 533.711 982.283 559.772 942.105 574.008C907.817 586.157 872.498 590.688 838.121 589.434Z" fill="#00A87A" fill-opacity="0.12"/>

</g>
<g clip-path="url(#clip1_71_526)">
<path d="M645.34 256.526C627.871 260.691 610.84 259.589 594.574 250.809C584.179 245.197 576.049 237.096 570.94 226.121C564.561 212.417 564.393 198.492 569.57 184.551C573.201 174.771 579.166 166.677 586.748 159.816C587.482 159.152 588.286 158.545 589.131 158.04C592.32 156.137 596.302 156.78 598.8 159.546C601.407 162.434 601.698 166.707 599.365 169.843C598.512 170.99 597.402 171.943 596.358 172.925C590.785 178.168 586.455 184.302 583.899 191.678C578.629 206.88 583.123 222.516 595.735 232.457C605.709 240.319 617.155 243.211 629.387 242.499C646.168 241.522 660.406 234.916 671.293 221.645C676.548 215.239 679.94 207.838 680.624 199.328C681.682 186.179 676.764 175.62 666.659 167.514C660.304 162.417 652.993 159.593 645.137 158.239C643.722 157.995 642.291 157.862 640.955 157.259C637.402 155.655 635.489 151.873 636.289 148.047C637.05 144.413 640.2 141.766 643.876 141.843C647.421 141.918 650.869 142.802 654.28 143.753C667.265 147.376 678.467 154.106 686.49 165.429C698.482 182.354 699.745 200.526 691.466 219.12C684.713 234.289 673.151 244.628 658.647 251.663C654.384 253.731 649.963 255.397 645.34 256.526Z" fill="#00A87A" fill-opacity="0.2"/>
<path d="M626.437 153.087C628.044 159.697 629.834 166.255 631.918 172.732C632.646 174.995 633.349 177.283 633.828 179.608C634.706 183.873 632.526 187.735 628.724 188.971C624.89 190.219 620.998 188.401 619.105 184.446C618.766 183.735 618.521 182.974 618.283 182.219C613.056 165.673 608.936 148.826 604.733 132.002C604.4 130.67 604.222 129.323 604.271 127.965C604.407 124.196 607.093 121.09 610.674 120.493C614.252 119.896 617.839 121.944 619.23 125.454C619.645 126.501 619.886 127.622 620.17 128.718C622.264 136.84 624.349 144.964 626.437 153.087Z" fill="#00A87A" fill-opacity="0.2"/>
</g>
<g clip-path="url(#clip2_71_526)">
<path d="M591.853 472.597C592.833 468.469 591.832 465.716 586.927 464.06C582.234 462.475 582.428 462.013 578.566 464.932C577.851 465.472 577.141 466.025 576.375 466.501C572.612 468.839 569.603 468.73 566.274 465.924C563.646 463.71 561.04 461.447 558.876 458.836C556.062 455.44 556.311 452.416 559.776 449.554C561.635 448.018 563.737 446.71 565.802 445.391C567.057 444.589 567.603 443.795 566.896 442.384C565.854 440.309 566.274 437.499 564.502 436C562.717 434.489 559.702 434.941 557.238 434.503C550.68 433.338 548.776 431.388 549.02 425.463C549.13 422.819 549.392 420.172 549.772 417.549C550.313 413.811 552.683 411.815 556.914 411.425C559.174 411.217 561.468 411.279 563.684 411.697C565.716 412.081 566.62 411.36 567.095 409.686C567.391 408.644 567.725 407.529 568.395 406.673C570.524 403.953 569.676 401.871 567.175 399.805C565.815 398.682 564.718 397.266 563.661 395.883C561.259 392.741 561.223 389.894 563.802 386.881C566.497 383.731 569.813 381.073 573.169 378.523C575.637 376.648 578.7 376.936 581.594 379.073C583.65 380.592 585.563 382.296 587.357 384.069C588.735 385.432 590.043 385.912 591.824 384.799C592.255 384.531 592.772 384.287 593.28 384.22C597.844 383.614 599.139 380.888 599.146 377.152C599.15 375.356 599.436 373.545 600.173 371.839C601.455 368.869 603.754 367.107 607.382 367.016C611.806 366.904 616.167 367.374 620.413 368.487C624.276 369.5 626.137 371.783 626.069 375.421C626.024 377.826 625.798 380.232 625.537 382.627C625.384 384.03 625.846 384.906 627.361 385.41C628.605 385.824 629.904 386.272 630.944 386.986C634.05 389.118 636.667 388.577 639.29 386.237C640.509 385.15 641.991 384.266 643.468 383.463C646.88 381.607 650.051 381.838 652.978 384.328C655.104 386.137 657.139 388.084 658.894 390.188C662.348 394.328 661.703 397.628 657.107 400.69C655.821 401.547 654.5 402.364 653.171 403.165C652.087 403.818 651.908 404.581 652.52 405.622C653.144 406.682 653.965 407.763 654.138 408.904C654.836 413.49 657.973 414.584 662.508 414.201C664.629 414.022 666.767 414.455 668.821 414.979C672.413 415.896 674.462 418.145 674.559 421.518C674.655 424.885 674.704 428.274 674.39 431.624C673.852 437.359 670.548 439.661 664.188 439.096C661.943 438.896 659.416 438.141 657.514 439.058C655.695 439.934 656.205 442.619 655 444.146C652.101 447.816 653.122 450.673 656.663 453.372C657.748 454.199 658.568 455.402 659.238 456.561C660.654 459.01 660.561 461.489 658.55 463.656C655.809 466.608 652.898 469.442 649.667 471.957C646.411 474.493 642.318 474.21 639.322 471.31C637.69 469.73 636.235 467.992 634.789 466.266C633.892 465.195 633.071 464.619 631.467 465.285C628.549 466.495 625.419 467.178 622.242 467.538C620.526 467.732 620.092 468.49 620.018 469.901C619.891 472.304 619.64 474.707 619.302 477.093C618.546 482.418 615.703 484.747 609.836 484.969C605.958 485.115 602.108 484.726 598.281 484.278C594.64 483.852 592.421 481.667 591.816 478.303C591.47 476.382 591.748 474.459 591.853 472.597ZM632.456 426.002C632.55 419.867 629.949 414.698 625.466 410.285C620.617 405.511 610.637 402.925 604.899 405.671C595.211 410.307 587.6 416.769 587.543 427.666C587.506 434.731 590.725 440.609 597.526 444.327C605.09 448.463 613.024 448.522 620.687 444.495C628.454 440.414 632.202 434.061 632.456 426.002Z" fill="#00A87A" fill-opacity="0.2"/>
</g>
<g clip-path="url(#clip3_71_526)">
<path d="M350.742 232.402C348.417 234.54 346.29 236.456 344.213 238.413C329.845 251.948 315.485 265.489 301.13 279.035C299.412 280.655 299.36 280.303 301.111 281.989C302.076 282.917 303.204 283.711 303.918 284.847C305.087 286.709 304.644 288.015 302.435 288.753C297.126 290.528 291.776 292.198 286.346 293.648C285.67 293.829 284.974 293.993 284.276 294.056C282.343 294.229 280.958 293.085 280.968 291.326C280.972 290.747 281.056 290.146 281.246 289.594C282.972 284.56 284.904 279.59 287.101 274.707C287.52 273.774 288.185 273.053 289.353 272.861C290.419 272.686 291.337 272.96 292.091 273.661C293.117 274.617 294.125 275.588 295.165 276.531C296.059 277.343 296.105 277.357 296.978 276.538C299.801 273.891 302.59 271.214 305.408 268.562C312.638 261.761 319.877 254.968 327.112 248.17C327.396 247.904 327.671 247.63 327.907 247.401C327.848 246.804 327.332 246.801 326.986 246.71C321.948 245.38 316.917 244.048 311.601 243.919C309.254 243.862 307.169 244.404 305.289 245.621C301.588 248.015 298.206 250.746 295.016 253.672C294.153 254.464 294.174 254.486 294.965 255.338C295.192 255.583 295.44 255.812 295.663 256.061C296.776 257.303 296.945 258.413 295.919 259.714C293.589 262.668 291.021 265.451 288.028 267.888C286.89 268.815 285.606 268.899 284.253 268.291C283.99 268.173 283.732 268.035 283.5 267.872C280.521 265.782 277.553 263.671 275.042 261.111C273.743 259.787 273.648 258.273 274.817 256.866C276.873 254.391 279.162 252.088 281.804 250.106C282.515 249.573 283.401 249.196 284.263 248.868C285.379 248.444 286.478 248.634 287.428 249.311C288.075 249.773 288.662 250.302 289.29 250.786C290.32 251.578 290.34 251.586 291.283 250.741C294.047 248.263 296.914 245.888 299.971 243.706C300.94 243.013 301.937 242.346 302.963 241.725C305.591 240.134 308.487 239.382 311.664 239.516C314.675 239.644 317.662 239.906 320.593 240.58C324.019 241.369 327.489 242.028 330.762 243.275C331.588 243.59 332.13 243.475 332.76 242.878C339.595 236.399 346.452 229.939 353.331 223.499C354.016 222.858 354.289 222.337 353.507 221.639C353.302 221.456 353.189 221.192 353.024 220.972C348.922 215.507 350.816 210.246 354.12 206.827C358.631 202.159 366.374 200.137 373.324 204.14C375.125 205.178 376.699 206.478 378.036 207.98C379.715 209.864 380.628 212.038 380.623 214.467C380.618 217.511 379.988 220.469 377.851 222.888C375.273 225.805 371.903 227.709 367.728 228.251C364.611 228.656 361.769 227.893 359.101 226.482C357.728 225.757 357.839 225.878 356.616 226.745C354.616 228.164 354.381 229.595 355.599 231.627C356.768 233.577 357.506 235.744 358.364 237.839C358.792 238.884 359.105 239.971 359.398 241.055C360.801 246.247 359.509 250.845 355.661 254.898C353.663 257.002 351.597 259.048 349.431 261.009C348.777 261.601 348.615 262.09 348.915 262.952C350.066 266.261 348.689 269.96 345.644 272.112C345.277 272.371 344.862 272.606 344.428 272.75C341.375 273.767 338.595 273.213 336.178 271.345C333.836 269.535 333.221 267.163 334.022 264.534C334.61 262.602 335.706 260.914 337.508 259.654C339.405 258.328 341.483 257.844 343.819 258.479C344.44 258.649 345 258.863 345.584 258.298C348.2 255.77 350.936 253.345 353.157 250.498C354.897 248.27 355.337 245.833 354.883 243.205C354.801 242.732 354.701 242.26 354.58 241.794C353.756 238.619 352.098 235.73 350.742 232.402Z" fill="#00A87A" fill-opacity="0.2"/>
</g>
<defs>
<filter id="filter0_d_71_526" x="194.7" y="396.031" width="307.145" height="140.56" filterUnits="userSpaceOnUse" color-interpolation-filters="sRGB">
<feFlood flood-opacity="0" result="BackgroundImageFix"/>
<feColorMatrix in="SourceAlpha" type="matrix" values="0 0 0 0 0 0 0 0 0 0 0 0 0 0 0 0 0 0 127 0" result="hardAlpha"/>
<feOffset dy="5.3307"/>
<feGaussianBlur stdDeviation="15.15"/>
<feComposite in2="hardAlpha" operator="out"/>
<feColorMatrix type="matrix" values="0 0 0 0 0 0 0 0 0 0 0 0 0 0 0 0 0 0 0.25 0"/>
<feBlend mode="normal" in2="BackgroundImageFix" result="effect1_dropShadow_71_526"/>
<feBlend mode="normal" in="SourceGraphic" in2="effect1_dropShadow_71_526" result="shape"/>
</filter>
<clipPath id="clip0_71_526">
<rect width="1072" height="650.1" fill="white"/>
</clipPath>
<clipPath id="clip1_71_526">
<rect width="131.874" height="140.412" fill="white" transform="translate(547 136.832) rotate(-14.4163)"/>
</clipPath>
<clipPath id="clip2_71_526">
<rect width="125.631" height="118" fill="white" transform="translate(549 367)"/>
</clipPath>
<clipPath id="clip3_71_526">
<rect width="106.623" height="92.0731" fill="white" transform="translate(274 202)"/>
</clipPath>
</defs>
</svg>
