<svg width="675" height="514" viewBox="0 0 675 514" fill="none" xmlns="http://www.w3.org/2000/svg">
<g clip-path="url(#clip0_71_646)">
<path d="M490.427 465.169C459.527 465.829 430.451 462.054 401.443 457.506C401.271 457.479 401.1 457.447 400.933 457.401C389.929 454.395 381.828 456.204 372.968 465.565C350.653 489.143 321.901 502.113 290.189 508.663C254.698 515.994 219.712 514.229 185.419 502.601C152.403 491.406 124.825 472.69 106.014 442.603C103.917 439.249 101.667 440.66 99.3328 441.692C82.7192 449.033 65.4426 454.252 47.5544 457.236C11.526 463.247 -24.4785 463.746 -59.775 453.236C-80.5779 447.041 -99.2806 436.455 -115.615 421.785C-134.724 404.624 -150.258 384.955 -160.745 361.402C-173.2 333.431 -174.234 304.894 -164.261 276.167C-155.114 249.819 -139.753 228.051 -114.851 214.032C-101.463 206.495 -87.1692 202.374 -71.7812 201.361C-56.4951 200.356 -41.652 201.99 -27.1611 206.785C-22.9905 208.166 -22.0911 207.026 -22.3615 202.812C-23.6585 182.595 -20.1965 163.405 -9.43893 145.86C0.479874 129.683 15.1017 119.391 32.7033 113.653C58.7242 105.171 84.4224 107.12 109.256 118.699C113.869 120.849 115.754 119.19 117.266 114.909C126.578 88.5383 141.726 65.8503 162.083 46.8373C189.247 21.4678 221.27 5.7599 258.373 1.37942C308.442 -4.5319 353.204 8.52496 391.627 41.1473C421.23 66.2823 440.385 98.2041 448.756 136.272C449.836 141.185 451.242 142.7 456.655 141.623C475.395 137.895 494.346 135.294 513.52 135.955C555.837 137.414 593.453 150.807 624.536 180.415C646.509 201.345 662.138 225.962 669.86 255.593C676.808 282.257 676.416 308.76 670.464 335.437C665.841 356.151 658.023 375.563 646.457 393.328C628.317 421.194 604.197 441.76 572.49 452.995C545.43 462.583 517.557 466.158 490.427 465.169Z" fill="#00A87A" fill-opacity="0.12"/>
</g>
<defs>
<clipPath id="clip0_71_646">
<rect width="846" height="513.045" fill="white" transform="translate(-171)"/>
</clipPath>
</defs>
</svg>
