<svg width="535" height="612" viewBox="0 0 535 612" fill="none" xmlns="http://www.w3.org/2000/svg">
<ellipse cx="48.5" cy="318.5" rx="286.5" ry="293.5" fill="#C8EBE2"/>
<ellipse cx="317.5" cy="257" rx="217.5" ry="257" fill="#C8EBE2"/>
<g clip-path="url(#clip0_71_525)">
<path d="M172.812 383.153C167.282 384.801 162.532 387.546 158.571 391.698C155.904 394.494 153.682 397.627 151.685 400.926C151.402 401.392 151.227 401.972 150.582 402.278C148.237 399.096 146.969 395.58 146.285 391.822C145.044 385.01 145.233 378.19 146.299 371.385C147.218 365.52 148.381 359.698 149.583 353.884C149.592 353.844 149.6 353.804 149.608 353.764C151.572 354.076 153.548 354.324 155.543 354.47C157.746 354.631 159.965 354.762 162.167 354.317C164.401 353.865 165.903 352.599 166.698 350.458C167.085 349.415 167.406 348.361 167.646 347.276C168.873 341.741 169.614 336.102 171.211 330.646C171.339 330.21 171.412 329.755 171.478 329.304C171.907 326.389 170.945 324.049 168.548 322.322C167.313 321.432 165.933 320.859 164.491 320.41C165.271 316.839 165.936 313.244 166.4 309.618C166.599 308.058 166.275 307.622 164.741 307.273C158.773 305.917 152.84 304.375 146.739 303.687C145.128 303.506 144.772 303.725 144.491 305.333C143.873 308.861 143.281 312.395 142.742 315.936C142.734 315.987 142.732 316.025 142.725 316.073C141.416 315.859 140.1 315.705 138.756 315.749C136.332 315.827 134.695 317.005 133.717 319.146C133.148 320.39 132.685 321.679 132.441 323.039C131.775 326.761 130.986 330.465 130.45 334.206C129.988 337.421 129.238 340.618 129.507 343.914C129.811 347.633 131.049 349.431 134.649 350.388C136.966 351.004 139.288 351.605 141.621 352.157C141.616 352.181 141.609 352.204 141.604 352.227C140.448 357.718 139.366 363.223 138.473 368.762C137.2 376.659 136.837 384.572 138.168 392.512C139.228 398.826 141.601 404.533 145.839 409.379C146.587 410.234 146.716 410.985 146.343 412.017C144.681 416.608 144.121 421.392 143.999 426.239C143.828 433.071 144.518 439.799 146.881 446.248C150.077 454.971 154.715 462.866 160.919 469.81C161.394 470.342 161.888 470.885 162.464 471.297C164.682 472.883 167.652 471.97 168.581 469.425C169.12 467.947 168.761 466.59 167.795 465.398C166.974 464.385 166.066 463.442 165.258 462.419C156.9 451.834 151.451 440.19 152.1 426.314C152.256 422.99 152.553 419.699 153.504 416.5C154.375 416.496 154.911 417.033 155.515 417.383C162.999 421.733 170.91 422.791 179.272 420.547C186.086 418.718 193.666 413.223 194.88 402.517C196.456 388.627 183.189 380.061 172.812 383.153ZM186.784 401.148C186.708 401.729 186.654 402.313 186.583 402.957C185.816 407.517 183.028 410.53 178.792 412.134C173.265 414.228 167.707 414.151 162.252 411.711C160.644 410.991 159.123 410.118 157.634 409.179C156.936 408.739 156.82 408.249 157.217 407.558C160.247 402.283 163.457 397.164 168.71 393.731C170.697 392.433 172.871 391.633 175.131 390.943C180.168 389.404 187.745 393.835 186.784 401.148Z" fill="#00A87A" fill-opacity="0.2"/>
</g>
<g clip-path="url(#clip1_71_525)">
<path d="M263.348 89.7982C260.835 89.1446 258.256 88.9741 255.733 88.5656C251.996 87.9611 248.223 87.5315 244.501 86.8665C241.635 86.3546 239.926 84.2992 240.033 81.8871C240.163 78.9736 242.871 76.9071 246.282 77.2892C249.671 77.6686 253.039 78.2049 256.413 78.6917C263.912 79.7736 271.404 80.8977 278.829 82.3536C280.243 82.6308 281.639 82.9519 282.899 83.6318C285.284 84.9196 286.25 86.9755 285.648 89.4178C285.344 90.6487 284.725 91.7387 283.914 92.7438C278.996 98.8415 274.213 105.028 269.026 110.948C267.755 112.399 266.608 113.938 265.406 115.439C264.782 116.219 264.127 116.975 263.299 117.592C260.973 119.328 257.892 119.279 255.843 117.477C253.887 115.755 253.654 112.967 255.463 110.922C257.881 108.189 259.899 105.182 262.518 102.588C262.912 102.198 263.184 101.708 263.547 101.218C262.763 100.941 262.278 101.359 261.765 101.566C246.019 107.903 230.278 114.252 214.537 120.599C213.982 120.823 213.4 121.003 212.877 121.277C211.774 121.855 211.253 121.387 210.79 120.503C209.719 118.458 208.562 116.451 207.478 114.412C206.73 113.005 206.749 112.974 208.339 112.331C215.131 109.584 221.93 106.85 228.725 104.107C239.818 99.6293 250.91 95.1481 262.001 90.6659C262.472 90.4756 263.027 90.3934 263.348 89.7982Z" fill="#00A87A" fill-opacity="0.2"/>
<path d="M230.787 142.204C232.019 141.692 233.254 141.187 234.481 140.666C252.433 133.056 270.379 125.436 288.339 117.843C290.954 116.738 290.414 116.607 291.694 119.022C292.71 120.939 293.575 122.92 294.57 124.845C294.936 125.554 294.884 125.996 294.039 126.298C293.474 126.5 292.932 126.751 292.381 126.984C275.457 134.147 258.531 141.309 241.611 148.482C240.802 148.825 239.911 149.057 239.011 149.868C242.154 150.461 245.078 151.016 248.004 151.564C250.235 151.981 252.503 152.275 254.691 152.829C257.599 153.564 259.093 155.966 258.496 158.584C257.962 160.927 255.621 162.458 252.746 162.325C252.217 162.301 251.687 162.225 251.166 162.132C244.83 161.008 238.497 159.872 232.161 158.748C228.583 158.113 224.994 157.525 221.425 156.854C219.248 156.445 217.156 155.851 215.759 154.08C213.92 151.749 214.11 149.3 215.246 146.838C216.649 143.797 218.277 140.855 220.213 138.051C223.55 133.218 227.339 128.653 230.566 123.753C231.786 121.901 233.673 120.912 236.124 121.215C239.896 121.681 241.904 125.305 240.072 128.432C238.509 131.102 236.614 133.597 234.724 136.089C233.27 138.006 231.85 139.944 230.414 141.873C230.538 141.983 230.663 142.094 230.787 142.204Z" fill="#00A87A" fill-opacity="0.2"/>
</g>
<defs>
<clipPath id="clip0_71_525">
<rect width="61" height="166.394" fill="white" transform="translate(105 316.758) rotate(-17.9095)"/>
</clipPath>
<clipPath id="clip1_71_525">
<rect width="87.7859" height="85.0895" fill="white" transform="translate(207 77.2437)"/>
</clipPath>
</defs>
</svg>
